<mxfile host="www.draw.io" modified="2019-12-12T14:36:14.447Z" agent="Mozilla/5.0 (Macintosh; Intel Mac OS X 10_13_6) AppleWebKit/537.36 (KHTML, like Gecko) Chrome/78.0.3904.108 Safari/537.36" etag="cJwVaN2bcxhC4-3BfFXF" version="12.4.0" type="github" pages="1">
  <diagram id="KAw-Mj8MD7lXXtAF-gUt" name="ページ1">
    <mxGraphModel dx="1368" dy="877" grid="1" gridSize="10" guides="1" tooltips="1" connect="1" arrows="1" fold="1" page="1" pageScale="1" pageWidth="1169" pageHeight="827" math="0" shadow="0">
      <root>
        <mxCell id="0"/>
        <mxCell id="1" parent="0"/>
        <mxCell id="ZgD-Zi6EmMCSjeIRPEWj-18" style="edgeStyle=orthogonalEdgeStyle;rounded=0;orthogonalLoop=1;jettySize=auto;html=1;exitX=0.5;exitY=0;exitDx=0;exitDy=0;" edge="1" parent="1" source="ZgD-Zi6EmMCSjeIRPEWj-2" target="ZgD-Zi6EmMCSjeIRPEWj-5">
          <mxGeometry relative="1" as="geometry"/>
        </mxCell>
        <mxCell id="ZgD-Zi6EmMCSjeIRPEWj-2" value="" style="shape=image;verticalLabelPosition=bottom;verticalAlign=top;imageAspect=0;image=https://image.flaticon.com/icons/svg/25/25231.svg;aspect=fixed;" vertex="1" parent="1">
          <mxGeometry x="295" y="265" width="67" height="67" as="geometry"/>
        </mxCell>
        <mxCell id="ZgD-Zi6EmMCSjeIRPEWj-17" style="edgeStyle=orthogonalEdgeStyle;rounded=0;orthogonalLoop=1;jettySize=auto;html=1;exitX=0.96;exitY=0.65;exitDx=0;exitDy=0;exitPerimeter=0;" edge="1" parent="1" source="ZgD-Zi6EmMCSjeIRPEWj-3" target="ZgD-Zi6EmMCSjeIRPEWj-2">
          <mxGeometry relative="1" as="geometry">
            <Array as="points">
              <mxPoint x="147" y="299"/>
            </Array>
          </mxGeometry>
        </mxCell>
        <mxCell id="ZgD-Zi6EmMCSjeIRPEWj-3" value="" style="pointerEvents=1;shadow=0;dashed=0;html=1;strokeColor=none;labelPosition=center;verticalLabelPosition=bottom;verticalAlign=top;align=center;fillColor=#505050;shape=mxgraph.mscae.intune.user_group" vertex="1" parent="1">
          <mxGeometry x="80" y="265" width="70" height="55" as="geometry"/>
        </mxCell>
        <mxCell id="ZgD-Zi6EmMCSjeIRPEWj-19" style="edgeStyle=orthogonalEdgeStyle;rounded=0;orthogonalLoop=1;jettySize=auto;html=1;exitX=1;exitY=0.5;exitDx=0;exitDy=0;" edge="1" parent="1" source="ZgD-Zi6EmMCSjeIRPEWj-5" target="ZgD-Zi6EmMCSjeIRPEWj-12">
          <mxGeometry relative="1" as="geometry"/>
        </mxCell>
        <mxCell id="ZgD-Zi6EmMCSjeIRPEWj-5" value="" style="shape=image;verticalLabelPosition=bottom;labelBackgroundColor=#ffffff;verticalAlign=top;aspect=fixed;imageAspect=0;image=https://cdn-ak.f.st-hatena.com/images/fotolife/y/yoshitaku_jp/20181203/20181203152044.png;" vertex="1" parent="1">
          <mxGeometry x="267.5" y="77.5" width="122" height="120" as="geometry"/>
        </mxCell>
        <mxCell id="ZgD-Zi6EmMCSjeIRPEWj-11" value="" style="outlineConnect=0;dashed=0;verticalLabelPosition=bottom;verticalAlign=top;align=center;html=1;shape=mxgraph.aws3.cloud_2;fillColor=#F58534;gradientColor=none;" vertex="1" parent="1">
          <mxGeometry x="640" y="100" width="75" height="75" as="geometry"/>
        </mxCell>
        <mxCell id="ZgD-Zi6EmMCSjeIRPEWj-20" style="edgeStyle=orthogonalEdgeStyle;rounded=0;orthogonalLoop=1;jettySize=auto;html=1;exitX=1;exitY=0.5;exitDx=0;exitDy=0;exitPerimeter=0;" edge="1" parent="1" source="ZgD-Zi6EmMCSjeIRPEWj-12" target="ZgD-Zi6EmMCSjeIRPEWj-11">
          <mxGeometry relative="1" as="geometry"/>
        </mxCell>
        <mxCell id="ZgD-Zi6EmMCSjeIRPEWj-12" value="" style="outlineConnect=0;dashed=0;verticalLabelPosition=bottom;verticalAlign=top;align=center;html=1;shape=mxgraph.aws3.lambda_function;fillColor=#F58534;gradientColor=none;" vertex="1" parent="1">
          <mxGeometry x="460" y="101.5" width="69" height="72" as="geometry"/>
        </mxCell>
        <mxCell id="ZgD-Zi6EmMCSjeIRPEWj-13" value="&lt;b&gt;developer&lt;/b&gt;" style="text;html=1;align=center;verticalAlign=middle;resizable=0;points=[];;autosize=1;" vertex="1" parent="1">
          <mxGeometry x="90" y="340" width="70" height="20" as="geometry"/>
        </mxCell>
        <mxCell id="ZgD-Zi6EmMCSjeIRPEWj-14" value="&lt;b&gt;GitHub&lt;/b&gt;" style="text;html=1;align=center;verticalAlign=middle;resizable=0;points=[];;autosize=1;" vertex="1" parent="1">
          <mxGeometry x="298.5" y="340" width="60" height="20" as="geometry"/>
        </mxCell>
        <mxCell id="ZgD-Zi6EmMCSjeIRPEWj-15" value="&lt;b&gt;serverless-artillery&lt;/b&gt;" style="text;html=1;align=center;verticalAlign=middle;resizable=0;points=[];;autosize=1;" vertex="1" parent="1">
          <mxGeometry x="434.5" y="190" width="120" height="20" as="geometry"/>
        </mxCell>
        <mxCell id="ZgD-Zi6EmMCSjeIRPEWj-16" value="&lt;b&gt;web api&lt;/b&gt;" style="text;html=1;align=center;verticalAlign=middle;resizable=0;points=[];;autosize=1;" vertex="1" parent="1">
          <mxGeometry x="647.5" y="190" width="60" height="20" as="geometry"/>
        </mxCell>
        <mxCell id="ZgD-Zi6EmMCSjeIRPEWj-21" value="invoke" style="text;html=1;align=center;verticalAlign=middle;resizable=0;points=[];;autosize=1;" vertex="1" parent="1">
          <mxGeometry x="389.5" y="117.5" width="50" height="20" as="geometry"/>
        </mxCell>
        <mxCell id="ZgD-Zi6EmMCSjeIRPEWj-22" value="request" style="text;html=1;align=center;verticalAlign=middle;resizable=0;points=[];;autosize=1;" vertex="1" parent="1">
          <mxGeometry x="549.5" y="117.5" width="60" height="20" as="geometry"/>
        </mxCell>
        <mxCell id="ZgD-Zi6EmMCSjeIRPEWj-23" value="master marge" style="text;html=1;align=center;verticalAlign=middle;resizable=0;points=[];;autosize=1;" vertex="1" parent="1">
          <mxGeometry x="171" y="280" width="90" height="20" as="geometry"/>
        </mxCell>
      </root>
    </mxGraphModel>
  </diagram>
</mxfile>
